<svg id='svgTitle' width="851px" height="60px" viewBox="0 0 851 60" version="1.1" xmlns="http://www.w3.org/2000/svg" xmlns:xlink="http://www.w3.org/1999/xlink" xmlns:sketch="http://www.bohemiancoding.com/sketch/ns">
    <!-- Generator: Sketch 3.2.2 (9983) - http://www.bohemiancoding.com/sketch -->
    <title>Group</title>
    <desc>Created with Sketch.</desc>
    <defs></defs>
    <g id="Welcome" stroke="none" stroke-width="1" fill="none" fill-rule="evenodd" sketch:type="MSPage">
        <g id="Desktop" sketch:type="MSArtboardGroup" transform="translate(-295.000000, -511.000000)" stroke="#FFFFFF" stroke-width="2">
            <g id="Head" sketch:type="MSLayerGroup">
                <g id="Group" transform="translate(296.000000, 512.000000)" sketch:type="MSShapeGroup">
                    <path d="M8.93684211,17.4805556 L23.8044976,39.3916667 L28.4354067,39.3916667 L43.3030622,17.4805556 L43.3030622,57.1944444 L51.4274641,57.1944444 L51.4274641,0.805555556 L44.9279426,0.805555556 L26.1605742,28.1944444 L7.39320574,0.805555556 L0.731196172,0.805555556 L0.731196172,57.1944444 L8.93684211,57.1944444 L8.93684211,17.4805556 Z" id="Path"></path>
                    <path d="M114.229091,29 C114.229091,34.8 111.873014,39.875 108.217033,43.5805556 C104.398565,47.3666667 99.1177033,49.7027778 93.511866,49.7027778 C87.9060287,49.7027778 82.7064115,47.3666667 78.9691866,43.5805556 C75.2319617,39.875 72.8758852,34.7194444 72.8758852,29 C72.8758852,23.2805556 75.2319617,18.125 78.9691866,14.4194444 C82.7064115,10.6333333 87.9060287,8.29722222 93.511866,8.29722222 C99.1177033,8.29722222 104.398565,10.6333333 108.217033,14.4194444 C111.873014,18.125 114.229091,23.2 114.229091,29 L114.229091,29 Z" id="Path"></path>
                    <path d="M64.5889952,29 C64.5889952,36.975 67.92,44.1444444 73.0383732,49.3805556 C78.2379904,54.6972222 85.5499522,57.9194444 93.511866,57.9194444 C101.555024,57.9194444 108.785742,54.6972222 114.066603,49.3805556 C119.184976,44.1444444 122.515981,36.975 122.515981,29 C122.515981,21.025 119.184976,13.8555556 114.066603,8.61944444 C108.785742,3.38333333 101.555024,0.0805555556 93.511866,0.0805555556 C85.5499522,0.0805555556 78.2379904,3.38333333 73.0383732,8.61944444 C67.92,13.8555556 64.5889952,21.025 64.5889952,29 L64.5889952,29 Z" id="Path"></path>
                    <path d="M144.045646,49.0583333 L144.045646,9.02222222 L156.232249,9.02222222 C169.39378,9.02222222 176.055789,19.0916667 176.055789,29.0805556 C176.055789,39.0694444 169.39378,49.0583333 156.232249,49.0583333 L144.045646,49.0583333 Z" id="Path"></path>
                    <path d="M135.84,0.886111111 L135.84,57.1944444 L156.232249,57.1944444 C174.837129,57.1944444 184.180191,43.1777778 184.180191,29.0805556 C184.180191,14.9833333 174.837129,0.886111111 156.232249,0.886111111 L135.84,0.886111111 Z" id="Path"></path>
                    <path d="M204.734928,33.1083333 L230.489282,33.1083333 L230.489282,24.8916667 L204.734928,24.8916667 L204.734928,9.02222222 L231.05799,9.02222222 L231.05799,0.886111111 L196.448038,0.886111111 L196.448038,57.1944444 L231.139234,57.1944444 L231.139234,49.0583333 L204.734928,49.0583333 L204.734928,33.1083333 Z" id="Path"></path>
                    <path d="M254.131292,32.4638889 L274.848517,57.1944444 L285.491483,57.1944444 L267.536555,36.0083333 C277.285837,34.3166667 282.241722,26.7444444 282.241722,18.7694444 C282.241722,9.82777778 276.067177,0.805555556 263.718086,0.805555556 L243.000861,0.805555556 L243.000861,57.1944444 L251.125263,57.1944444 L251.125263,9.02222222 L263.718086,9.02222222 C270.623828,9.02222222 274.036077,13.9361111 274.036077,18.7694444 C274.036077,23.6833333 270.623828,28.5972222 263.718086,28.5972222 L254.131292,28.5972222 L254.131292,32.4638889 Z" id="Path"></path>
                    <path d="M304.096364,57.1944444 L304.096364,17.8027778 L331.556842,57.1944444 L338.056364,57.1944444 L338.056364,0.805555556 L329.931962,0.805555556 L329.931962,40.5194444 L302.227751,0.805555556 L295.890718,0.725 L295.890718,57.1944444 L304.096364,57.1944444 Z" id="Path"></path>
                    <path d="M409.632344,13.05 L416.61933,32.9472222 L402.482871,32.9472222 L409.632344,13.05 Z" id="Path"></path>
                    <path d="M426.612344,57.1944444 L435.386699,57.1944444 L412.557129,0.0805555556 L406.545072,0.0805555556 L383.715502,57.1944444 L392.5711,57.1944444 C394.358469,52.5222222 397.20201,45.7555556 399.395598,40.6 L419.787847,40.6 L426.612344,57.1944444 Z" id="Path"></path>
                    <path d="M452.610431,57.1944444 L452.610431,17.8027778 L480.070909,57.1944444 L486.570431,57.1944444 L486.570431,0.805555556 L478.446029,0.805555556 L478.446029,40.5194444 L450.741818,0.805555556 L444.404785,0.725 L444.404785,57.1944444 L452.610431,57.1944444 Z" id="Path"></path>
                    <path d="M524.023923,13.05 L531.010909,32.9472222 L516.87445,32.9472222 L524.023923,13.05 Z" id="Path"></path>
                    <path d="M541.003923,57.1944444 L549.778278,57.1944444 L526.948708,0.0805555556 L520.936651,0.0805555556 L498.107081,57.1944444 L506.962679,57.1944444 C508.750048,52.5222222 511.593589,45.7555556 513.787177,40.6 L534.179426,40.6 L541.003923,57.1944444 Z" id="Path"></path>
                    <path d="M569.114354,0.886111111 L560.908708,0.886111111 L560.908708,57.1944444 L595.843636,57.1944444 L595.843636,49.0583333 L569.114354,49.0583333 L569.114354,0.886111111 Z" id="Path"></path>
                    <path d="M591.943923,0.886111111 L612.986124,34.2361111 L612.986124,57.1944444 L621.273014,57.1944444 L621.273014,34.2361111 L642.396459,0.886111111 L632.647177,0.886111111 L617.129569,25.6166667 L601.611962,0.886111111 L591.943923,0.886111111 Z" id="Path"></path>
                    <path d="M675.706507,57.4361111 L675.706507,8.37777778 L692.848995,8.37777778 L692.848995,0.805555556 L650.277129,0.805555556 L650.277129,8.37777778 L667.500861,8.37777778 L667.500861,57.4361111 L675.706507,57.4361111 Z" id="Path"></path>
                    <path d="M733.146029,0.886111111 L703.816938,0.886111111 L703.816938,8.94166667 L714.37866,8.94166667 L714.37866,49.0583333 L703.816938,49.0583333 L703.816938,57.1944444 L733.146029,57.1944444 L733.146029,49.0583333 L722.584306,49.0583333 L722.584306,8.94166667 L733.146029,8.94166667 L733.146029,0.886111111 Z" id="Path"></path>
                    <path d="M741.351675,29.1611111 C741.351675,36.975 744.601435,44.0638889 749.476077,49.2194444 C754.431962,54.375 761.418947,57.5972222 769.137129,57.5972222 C782.379904,57.5972222 792.779139,48.8972222 796.0289,36.0888889 L787.985742,36.0888889 C785.060957,44.6277778 777.748995,49.5416667 769.137129,49.5416667 C763.69378,49.5416667 758.737895,47.2055556 755.163158,43.5 C751.588421,39.7944444 749.313589,34.8 749.313589,29.1611111 C749.313589,23.3611111 751.588421,18.3666667 755.163158,14.6611111 C758.737895,10.9555556 763.69378,8.61944444 769.137129,8.61944444 C777.505263,8.61944444 784.492249,12.8888889 787.498278,21.3472222 L795.622679,21.3472222 C792.372919,8.61944444 782.136172,0.563888889 769.137129,0.563888889 C761.418947,0.563888889 754.431962,3.86666667 749.476077,8.94166667 C744.601435,14.0972222 741.351675,21.1861111 741.351675,29.1611111 L741.351675,29.1611111 Z" id="Path"></path>
                    <path d="M847.37512,15.0638889 C845.912727,4.75277778 836.813397,0.241666667 828.039043,0.241666667 C821.458278,0.241666667 814.63378,2.81944444 810.815311,7.73333333 C808.37799,10.875 807.403062,14.6611111 807.728038,18.4472222 L807.728038,18.3666667 C808.621722,30.1277778 819.020957,32.0611111 827.876555,32.9472222 C833.563636,33.5111111 839.413206,34.2361111 840.388134,38.5055556 C840.550622,39.2305556 840.631866,39.875 840.631866,40.4388889 C840.631866,46.2388889 833.969856,49.6222222 827.876555,49.6222222 C822.595694,49.6222222 816.177416,46.8833333 815.608708,41.6472222 L815.608708,41.9694444 L815.527464,40.7611111 L807.240574,40.9222222 L807.321818,42.4527778 C808.37799,52.5222222 819.020957,57.6777778 827.795311,57.6777778 C838.032057,57.6777778 848.918756,51.3944444 848.918756,40.5194444 C848.918756,39.3916667 848.756268,38.0222222 848.512536,36.8138889 C846.318947,27.7916667 836.650909,25.7777778 828.851483,24.8111111 C822.758182,24.2472222 816.339904,23.5222222 815.933684,17.7222222 C815.771196,15.7888889 816.177416,13.9361111 817.314833,12.4861111 C819.589665,9.58611111 823.814354,8.29722222 827.632823,8.21666667 C832.588708,8.13611111 838.113301,10.3111111 839.250718,15.3861111 L847.37512,15.0638889 Z" id="Path"></path>
                </g>
            </g>
        </g>
    </g>
</svg>
